<svg width="24" height="24" viewBox="0 0 24 24" fill="none" xmlns="http://www.w3.org/2000/svg">
    <path
        d="M6.600 2.043 C 5.217 2.110,3.998 2.357,2.988 2.774 C 2.413 3.011,1.999 3.276,1.637 3.637 C 1.286 3.987,1.105 4.317,1.041 4.720 C 0.985 5.077,0.985 16.923,1.041 17.280 C 1.105 17.683,1.286 18.013,1.637 18.363 C 1.999 18.724,2.413 18.989,2.988 19.226 C 4.022 19.654,5.213 19.888,6.714 19.960 C 7.748 20.009,8.037 19.963,8.266 19.714 C 8.388 19.581,8.480 19.276,8.480 19.009 C 8.479 18.562,8.334 18.277,8.030 18.126 C 7.858 18.040,7.763 18.029,6.990 17.997 C 6.523 17.977,5.906 17.927,5.620 17.884 C 4.527 17.721,3.515 17.387,3.126 17.059 L 3.000 16.953 3.000 16.092 C 3.000 15.288,3.005 15.233,3.070 15.261 C 4.064 15.683,5.585 15.949,7.120 15.969 C 7.757 15.977,7.836 15.971,8.000 15.895 C 8.099 15.849,8.219 15.768,8.266 15.715 C 8.388 15.580,8.480 15.276,8.480 15.009 C 8.479 14.562,8.334 14.277,8.030 14.126 C 7.858 14.040,7.763 14.029,6.990 13.997 C 6.523 13.977,5.906 13.927,5.620 13.884 C 4.527 13.721,3.515 13.387,3.126 13.059 L 3.000 12.953 3.000 12.097 L 3.000 11.241 3.270 11.343 C 4.252 11.714,5.740 11.954,7.160 11.971 C 7.757 11.978,7.837 11.971,8.000 11.895 C 8.099 11.849,8.219 11.768,8.266 11.715 C 8.388 11.580,8.480 11.276,8.480 11.009 C 8.479 10.562,8.334 10.277,8.031 10.126 C 7.860 10.041,7.762 10.029,7.011 9.998 C 6.554 9.978,5.973 9.934,5.720 9.900 C 4.617 9.748,3.524 9.394,3.126 9.059 L 3.000 8.953 3.000 8.096 C 3.000 7.625,3.008 7.240,3.017 7.240 C 3.026 7.240,3.117 7.276,3.218 7.319 C 3.320 7.363,3.587 7.451,3.812 7.516 C 6.256 8.216,9.864 8.111,11.878 7.281 L 12.174 7.159 12.277 7.255 C 12.416 7.386,12.715 7.480,12.991 7.480 C 13.444 7.479,13.723 7.335,13.880 7.020 C 13.975 6.828,13.980 6.783,13.994 5.937 C 14.017 4.530,13.926 4.198,13.363 3.637 C 12.432 2.708,10.681 2.158,8.280 2.040 C 7.851 2.019,7.437 2.004,7.360 2.007 C 7.283 2.010,6.941 2.026,6.600 2.043 M9.387 4.113 C 10.468 4.282,11.483 4.614,11.840 4.916 L 11.940 5.000 11.840 5.084 C 11.475 5.393,10.387 5.741,9.260 5.908 C 8.569 6.010,6.431 6.010,5.740 5.908 C 4.613 5.741,3.525 5.393,3.160 5.084 L 3.060 5.000 3.160 4.916 C 3.534 4.599,4.645 4.247,5.720 4.104 C 6.436 4.008,6.432 4.008,7.680 4.020 C 8.632 4.029,8.962 4.047,9.387 4.113 M15.200 8.565 C 13.543 8.697,12.056 9.116,11.159 9.702 C 10.520 10.119,10.122 10.666,10.039 11.241 C 9.987 11.602,9.989 18.946,10.041 19.280 C 10.105 19.683,10.286 20.013,10.637 20.363 C 11.375 21.098,12.594 21.583,14.350 21.839 C 15.901 22.065,18.095 22.003,19.500 21.694 C 20.352 21.507,21.221 21.184,21.748 20.858 C 21.920 20.752,22.197 20.529,22.363 20.363 C 22.714 20.013,22.895 19.683,22.959 19.280 C 23.011 18.946,23.013 11.602,22.961 11.241 C 22.754 9.811,20.769 8.798,17.704 8.560 C 17.107 8.514,15.809 8.516,15.200 8.565 M18.120 10.581 C 18.746 10.659,19.106 10.732,19.640 10.888 C 20.251 11.066,20.919 11.385,20.919 11.500 C 20.919 11.608,20.329 11.899,19.740 12.081 C 18.763 12.383,17.920 12.492,16.540 12.495 C 15.174 12.498,14.338 12.398,13.360 12.113 C 12.748 11.934,12.081 11.614,12.081 11.500 C 12.081 11.385,12.758 11.060,13.360 10.886 C 14.039 10.691,14.837 10.558,15.660 10.505 C 16.141 10.473,17.633 10.519,18.120 10.581 M12.506 13.917 C 14.789 14.674,18.211 14.674,20.494 13.917 C 20.755 13.831,20.975 13.760,20.984 13.760 C 20.993 13.760,21.000 14.081,21.000 14.473 L 21.000 15.185 20.890 15.286 C 20.523 15.624,19.472 15.976,18.348 16.139 C 17.287 16.293,15.713 16.293,14.652 16.139 C 13.528 15.976,12.477 15.624,12.110 15.286 L 12.000 15.185 12.000 14.473 C 12.000 14.081,12.007 13.760,12.016 13.760 C 12.025 13.760,12.245 13.831,12.506 13.917 M13.260 17.883 C 15.148 18.346,17.852 18.346,19.740 17.883 C 20.004 17.818,20.395 17.704,20.610 17.629 L 21.000 17.493 21.000 18.223 L 21.000 18.953 20.874 19.059 C 20.477 19.393,19.422 19.735,18.260 19.908 C 17.569 20.010,15.431 20.010,14.740 19.908 C 13.578 19.735,12.523 19.393,12.126 19.059 L 12.000 18.953 12.000 18.223 L 12.000 17.493 12.390 17.629 C 12.605 17.704,12.996 17.818,13.260 17.883 "
        stroke="none" fill-rule="evenodd"></path>
</svg>