<svg width="24" height="24" viewBox="0 0 24 24" fill="none" xmlns="http://www.w3.org/2000/svg">
    <path
        d="M11.575 1.119 C 11.221 1.194,4.917 3.592,4.526 3.800 C 4.080 4.038,3.694 4.420,3.400 4.916 C 3.115 5.396,3.079 5.554,3.033 6.560 C 2.982 7.659,3.018 12.678,3.080 13.140 C 3.199 14.037,3.632 15.264,4.164 16.213 C 5.273 18.191,7.425 20.335,9.880 21.908 C 11.900 23.203,12.179 23.193,14.360 21.747 C 15.935 20.703,17.302 19.508,18.443 18.179 C 19.675 16.744,20.408 15.354,20.823 13.665 C 20.956 13.125,20.998 12.085,20.997 9.320 C 20.996 6.693,20.959 5.753,20.842 5.420 C 20.675 4.946,20.331 4.453,19.929 4.112 C 19.520 3.764,19.393 3.712,14.889 2.018 L 12.517 1.126 12.129 1.105 C 11.915 1.094,11.666 1.100,11.575 1.119 M13.213 3.525 C 13.877 3.770,15.122 4.236,15.980 4.562 C 18.693 5.590,18.653 5.571,18.843 5.871 L 18.960 6.056 18.960 9.448 L 18.960 12.841 18.863 13.250 C 18.584 14.425,17.949 15.634,16.998 16.800 C 16.313 17.641,15.238 18.645,14.182 19.432 C 13.726 19.772,12.526 20.571,12.210 20.744 L 12.000 20.860 11.790 20.744 C 11.474 20.571,10.274 19.772,9.818 19.432 C 7.280 17.541,5.642 15.377,5.137 13.250 L 5.040 12.841 5.040 9.445 L 5.040 6.049 5.170 5.857 C 5.262 5.722,5.371 5.627,5.540 5.536 C 5.759 5.419,7.470 4.760,10.720 3.544 C 11.391 3.293,11.955 3.086,11.973 3.084 C 11.991 3.082,12.549 3.280,13.213 3.525 M15.097 8.089 C 14.989 8.160,14.022 9.090,12.950 10.156 L 11.000 12.093 10.310 11.414 C 9.304 10.425,9.139 10.334,8.712 10.529 C 8.268 10.733,7.961 11.129,7.960 11.502 C 7.960 11.659,7.988 11.748,8.084 11.902 C 8.152 12.011,8.724 12.614,9.354 13.243 C 10.604 14.489,10.732 14.587,11.063 14.550 C 11.191 14.535,11.304 14.481,11.470 14.356 C 11.780 14.122,16.145 9.760,16.358 9.472 C 16.592 9.156,16.609 8.996,16.444 8.662 C 16.137 8.038,15.553 7.790,15.097 8.089 "
        stroke="none" fill-rule="evenodd"></path>
</svg>