<svg width="24" height="24" viewBox="0 0 24 24" stroke="none" xmlns="http://www.w3.org/2000/svg">
    <path
        d="M9.249 1.039 C 8.906 1.121,8.891 1.139,6.116 4.680 C 4.111 7.238,3.245 8.363,3.127 8.560 C 2.860 9.009,3.097 9.689,3.599 9.915 C 3.714 9.967,3.946 9.981,4.868 9.992 L 5.995 10.006 6.008 11.653 C 6.021 13.486,6.009 13.403,6.307 13.686 C 6.497 13.867,6.669 13.954,6.890 13.985 C 7.264 14.036,7.718 13.792,7.887 13.449 L 7.980 13.260 7.980 11.020 C 7.980 8.514,7.987 8.585,7.698 8.296 C 7.481 8.079,7.329 8.037,6.626 8.005 L 6.071 7.980 7.362 6.340 C 8.796 4.518,9.207 4.006,9.397 3.802 L 9.526 3.665 9.620 3.782 C 10.804 5.274,12.880 7.930,12.880 7.955 C 12.880 7.974,12.623 7.998,12.310 8.008 C 11.677 8.030,11.573 8.061,11.307 8.314 C 11.001 8.605,11.021 8.397,11.008 11.346 L 10.996 13.992 9.868 14.008 C 8.627 14.026,8.571 14.036,8.327 14.279 C 8.112 14.494,8.023 14.705,8.023 15.000 C 8.023 15.168,8.047 15.305,8.090 15.386 C 8.169 15.533,8.997 16.611,10.896 19.040 C 13.141 21.912,13.786 22.710,13.951 22.819 C 14.357 23.087,14.862 23.034,15.200 22.686 C 15.521 22.355,20.677 15.770,20.873 15.440 C 21.014 15.202,21.021 14.824,20.889 14.572 C 20.771 14.349,20.542 14.131,20.364 14.075 C 20.278 14.048,19.775 14.022,19.113 14.011 L 18.006 13.992 17.993 12.366 C 17.978 10.574,17.980 10.586,17.721 10.327 C 17.508 10.114,17.296 10.026,17.000 10.026 C 16.814 10.026,16.694 10.049,16.578 10.109 C 16.380 10.212,16.094 10.515,16.051 10.668 C 16.034 10.729,16.020 11.797,16.020 13.040 C 16.020 15.600,15.995 15.405,16.359 15.732 C 16.603 15.951,16.786 16.000,17.372 16.001 C 17.596 16.001,17.804 16.017,17.834 16.035 C 17.874 16.061,17.481 16.585,16.300 18.085 C 15.427 19.193,14.669 20.154,14.615 20.220 L 14.517 20.340 14.394 20.200 C 13.849 19.577,11.108 16.079,11.140 16.047 C 11.154 16.032,11.395 16.009,11.673 15.996 C 11.952 15.982,12.257 15.950,12.351 15.924 C 12.570 15.863,12.770 15.685,12.887 15.448 L 12.980 15.260 12.992 12.633 L 13.004 10.006 14.132 9.992 C 15.374 9.977,15.426 9.968,15.673 9.721 C 15.888 9.506,15.977 9.295,15.977 9.000 C 15.977 8.832,15.953 8.695,15.910 8.614 C 15.817 8.441,13.863 5.919,11.405 2.800 C 10.254 1.339,10.152 1.222,9.949 1.127 C 9.752 1.035,9.435 0.995,9.249 1.039 "
        stroke="none" fill-rule="evenodd"></path>
</svg>