<svg width="32" height="32" viewBox="0 0 32 32" fill="none" xmlns="http://www.w3.org/2000/svg">
    <circle cx="16" cy="16" r="16" fill="white" />
    <path fill-rule="evenodd" clip-rule="evenodd"
        d="M20.041 21.2153L20.8379 22.8578C22.0941 22.696 24.795 21.7897 25.5487 19.4593C26.1768 16.7082 25.8314 10.8174 19.4246 9.26379C20.0019 9.75958 20.6587 10.5348 21.173 11.5281C19.8385 10.68 18.1235 10.17 16.2526 10.17C14.382 10.17 12.6671 10.6799 11.3326 11.5279C11.8469 10.5349 12.5036 9.75988 13.0807 9.2642C6.67397 10.8178 6.3285 16.7086 6.95662 19.4597C7.71035 21.7901 10.4112 22.6964 11.6675 22.8582L12.4642 21.2161C11.5844 20.6506 10.924 19.892 10.5946 19.0257C11.8132 20.2431 13.8923 21.0449 16.2524 21.0449C18.6115 21.0449 20.6899 20.2437 21.9087 19.0271C21.5794 19.8925 20.9197 20.6502 20.041 21.2153ZM18.9717 17.4205C19.7225 17.4205 20.3311 16.8119 20.3311 16.0611C20.3311 15.3103 19.7225 14.7017 18.9717 14.7017C18.2209 14.7017 17.6123 15.3103 17.6123 16.0611C17.6123 16.8119 18.2209 17.4205 18.9717 17.4205ZM13.5337 17.4213C14.2845 17.4213 14.8932 16.8127 14.8932 16.0619C14.8932 15.3111 14.2845 14.7025 13.5337 14.7025C12.783 14.7025 12.1743 15.3111 12.1743 16.0619C12.1743 16.8127 12.783 17.4213 13.5337 17.4213Z"
        fill="black" fill-opacity="0.5" />
</svg>