<svg width="24" height="24" viewBox="0 0 24 24" fill="none" xmlns="http://www.w3.org/2000/svg">
    <path
        d="M6.930 1.043 C 5.860 1.111,5.188 1.347,4.488 1.901 C 3.720 2.508,3.252 3.356,3.074 4.462 C 3.043 4.657,3.024 6.875,3.013 11.900 L 2.997 19.060 3.084 19.560 C 3.236 20.442,3.439 20.928,3.901 21.512 C 4.508 22.280,5.362 22.751,6.462 22.925 C 6.849 22.987,17.391 23.021,18.080 22.964 C 18.700 22.912,18.966 22.845,19.400 22.633 C 19.676 22.498,19.808 22.398,20.103 22.103 C 20.662 21.545,20.880 21.046,20.960 20.140 C 21.013 19.548,21.013 4.452,20.960 3.860 C 20.910 3.296,20.839 3.021,20.633 2.600 C 20.498 2.324,20.398 2.192,20.103 1.897 C 19.545 1.338,19.046 1.120,18.140 1.040 C 17.618 0.993,7.663 0.996,6.930 1.043 M18.420 3.092 C 18.637 3.190,18.794 3.344,18.895 3.560 L 18.980 3.740 18.991 9.369 L 19.002 14.998 12.711 15.009 L 6.420 15.020 6.035 15.127 C 5.824 15.185,5.511 15.297,5.340 15.376 C 5.169 15.455,5.022 15.520,5.013 15.520 C 5.004 15.520,5.003 13.086,5.012 10.110 C 5.022 6.167,5.039 4.646,5.073 4.500 C 5.218 3.882,5.739 3.310,6.328 3.122 C 6.410 3.096,6.626 3.060,6.808 3.042 C 6.991 3.025,9.642 3.012,12.700 3.015 C 17.966 3.020,18.268 3.024,18.420 3.092 M18.993 18.630 C 18.981 20.183,18.976 20.269,18.897 20.440 C 18.798 20.654,18.586 20.851,18.373 20.926 C 18.157 21.002,6.908 21.006,6.540 20.930 C 5.901 20.797,5.315 20.279,5.125 19.680 C 5.042 19.418,4.997 18.778,5.045 18.550 C 5.189 17.876,5.827 17.220,6.500 17.056 C 6.653 17.018,8.160 17.006,12.853 17.003 L 19.006 17.000 18.993 18.630 "
        stroke="none" fill-rule="evenodd" fill="black"></path>
</svg>