<svg width="24" height="24" viewBox="0 0 24 24" fill="none" xmlns="http://www.w3.org/2000/svg">
    <g opacity="0.7">
        <path fill-rule="evenodd" clip-rule="evenodd"
            d="M11.597 1.041C11.8628 0.986332 12.137 0.986332 12.4028 1.041C12.7101 1.1042 12.9847 1.25803 13.203 1.38032L13.2626 1.41357L20.6626 5.52468L20.7257 5.55955C20.9568 5.68686 21.2474 5.84693 21.4706 6.08911C21.6636 6.29849 21.8096 6.54665 21.8989 6.817C22.0022 7.1297 22.001 7.46148 22.0001 7.72536L21.9999 7.79749V13.9292C21.4439 13.3841 20.7611 12.9679 19.9999 12.7289V8.55551L12.9999 12.4444L12.9999 20.1565L13.9694 19.6179C14.2591 20.2367 14.6719 20.7863 15.1762 21.2354L13.2626 22.2985L13.203 22.3318C12.9847 22.4541 12.71 22.6079 12.4028 22.6711C12.137 22.7257 11.8628 22.7257 11.597 22.6711C11.2897 22.6079 11.0151 22.4541 10.7967 22.3318L10.7372 22.2985L3.33721 18.1874L3.27408 18.1525C3.04295 18.0252 2.75233 17.8652 2.52915 17.623C2.3362 17.4136 2.19018 17.1654 2.10085 16.8951C1.99753 16.5824 1.99874 16.2506 1.9997 15.9867L1.99988 15.9146V7.79749L1.9997 7.72536C1.99874 7.46149 1.99753 7.12971 2.10085 6.817C2.19017 6.54665 2.3362 6.29849 2.52915 6.08911C2.75232 5.84693 3.04294 5.68686 3.27407 5.55955L3.33721 5.52468L10.7372 1.41357L10.7967 1.38032C11.0151 1.25803 11.2897 1.1042 11.597 1.041ZM11.9999 3.00503L11.9951 3.00732C11.9374 3.03515 11.86 3.07769 11.7085 3.16188L5.05902 6.85604L11.9998 10.7121L18.9407 6.85602L12.2913 3.16188C12.1397 3.07769 12.0624 3.03515 12.0047 3.00732L11.9999 3.00503ZM10.9999 12.4444L3.99988 8.55554V15.9146C3.99988 16.0976 4.0003 16.1912 4.00438 16.259L4.00474 16.2648L4.00958 16.2679C4.06688 16.3044 4.14854 16.3502 4.3085 16.4391L10.9999 20.1565L10.9999 12.4444Z"
            fill="black" />
        <path fill-rule="evenodd" clip-rule="evenodd"
            d="M15 17.5C15 15.567 16.567 14 18.5 14C20.433 14 22 15.567 22 17.5C22 18.1028 21.8476 18.6699 21.5793 19.1651L22.7071 20.2929C23.0976 20.6834 23.0976 21.3166 22.7071 21.7071C22.3166 22.0976 21.6834 22.0976 21.2929 21.7071L20.1651 20.5793C19.6699 20.8476 19.1028 21 18.5 21C16.567 21 15 19.433 15 17.5ZM18.5 16C17.6716 16 17 16.6716 17 17.5C17 18.3284 17.6716 19 18.5 19C19.3284 19 20 18.3284 20 17.5C20 16.6716 19.3284 16 18.5 16Z"
            fill="black" />
    </g>
</svg>