<svg width="24" height="24" viewBox="0 0 24 24" fill="none" xmlns="http://www.w3.org/2000/svg">
    <g opacity="0.7">
        <path fill-rule="evenodd" clip-rule="evenodd"
            d="M11.597 1.041C11.8628 0.986332 12.137 0.986332 12.4028 1.041C12.7101 1.1042 12.9847 1.25803 13.203 1.38032L13.2626 1.41357L20.6626 5.52468L20.7257 5.55955C20.9568 5.68686 21.2474 5.84693 21.4706 6.08911C21.6636 6.29849 21.8096 6.54665 21.8989 6.817C22.0022 7.1297 22.001 7.46148 22.0001 7.72536L21.9999 7.79749V13.9292C21.4439 13.3841 20.7611 12.9679 19.9999 12.7289V8.55551L12.9999 12.4444L12.9999 20.1565L13.9694 19.6179C14.2591 20.2367 14.6719 20.7863 15.1762 21.2354L13.2626 22.2985L13.203 22.3318C12.9847 22.4541 12.71 22.6079 12.4028 22.6711C12.137 22.7257 11.8628 22.7257 11.597 22.6711C11.2897 22.6079 11.0151 22.4541 10.7967 22.3318L10.7372 22.2985L3.33721 18.1874L3.27408 18.1525C3.04295 18.0252 2.75233 17.8652 2.52915 17.623C2.3362 17.4136 2.19018 17.1654 2.10085 16.8951C1.99753 16.5824 1.99874 16.2506 1.9997 15.9867L1.99988 15.9146V7.79749L1.9997 7.72536C1.99874 7.46149 1.99753 7.12971 2.10085 6.817C2.19017 6.54665 2.3362 6.29849 2.52915 6.08911C2.75232 5.84693 3.04294 5.68686 3.27407 5.55955L3.33721 5.52468L10.7372 1.41357L10.7967 1.38032C11.0151 1.25803 11.2897 1.1042 11.597 1.041ZM11.9999 3.00503L11.9951 3.00732C11.9374 3.03515 11.86 3.07769 11.7085 3.16188L5.05902 6.85604L11.9998 10.7121L18.9407 6.85602L12.2913 3.16188C12.1397 3.07769 12.0624 3.03515 12.0047 3.00732L11.9999 3.00503ZM10.9999 12.4444L3.99988 8.55554V15.9146C3.99988 16.0976 4.0003 16.1912 4.00438 16.259L4.00474 16.2648L4.00958 16.2679C4.06688 16.3044 4.14854 16.3502 4.3085 16.4391L10.9999 20.1565L10.9999 12.4444Z"
            fill="black" />
        <path fill-rule="evenodd" clip-rule="evenodd"
            d="M15 17.5C15 15.567 16.567 14 18.5 14C20.433 14 22 15.567 22 17.5C22 18.1028 21.8476 18.6699 21.5793 19.1651L22.7071 20.2929C23.0976 20.6834 23.0976 21.3166 22.7071 21.7071C22.3166 22.0976 21.6834 22.0976 21.2929 21.7071L20.1651 20.5793C19.6699 20.8476 19.1028 21 18.5 21C16.567 21 15 19.433 15 17.5ZM18.5 16C17.6716 16 17 16.6716 17 17.5C17 18.3284 17.6716 19 18.5 19C19.3284 19 20 18.3284 20 17.5C20 16.6716 19.3284 16 18.5 16Z"
            fill="black" />
    </g>
    <path
        d="M11.623 1.047 C 11.514 1.067,11.298 1.144,11.143 1.216 C 10.676 1.434,2.996 5.715,2.776 5.881 C 2.404 6.160,2.120 6.640,2.042 7.120 C 1.985 7.479,1.985 16.243,2.043 16.600 C 2.125 17.110,2.451 17.613,2.896 17.917 C 3.284 18.181,11.125 22.503,11.380 22.593 C 11.755 22.725,12.228 22.729,12.600 22.602 C 12.826 22.526,13.439 22.201,14.812 21.430 L 15.165 21.232 14.902 20.965 C 14.584 20.641,14.298 20.255,14.116 19.903 C 14.041 19.758,13.971 19.640,13.960 19.640 C 13.949 19.641,13.733 19.756,13.480 19.896 L 13.020 20.152 13.010 16.308 C 13.004 14.194,13.013 12.451,13.030 12.434 C 13.046 12.418,14.617 11.539,16.520 10.482 L 19.980 8.560 19.990 10.637 L 20.001 12.715 20.220 12.797 C 20.767 13.001,21.397 13.377,21.781 13.727 L 22.000 13.928 22.000 10.654 C 22.000 8.622,21.984 7.285,21.959 7.129 C 21.880 6.643,21.595 6.158,21.224 5.881 C 21.003 5.715,13.320 1.432,12.860 1.218 C 12.428 1.016,12.053 0.965,11.623 1.047 M15.470 4.921 C 17.334 5.957,18.875 6.819,18.893 6.837 C 18.911 6.855,17.367 7.736,15.461 8.795 L 11.996 10.720 8.536 8.795 C 6.632 7.736,5.090 6.854,5.107 6.837 C 5.196 6.749,11.987 3.004,12.030 3.019 C 12.057 3.029,13.605 3.885,15.470 4.921 M7.680 10.591 L 10.980 12.427 10.990 16.297 L 11.000 20.168 10.830 20.069 C 10.737 20.015,9.161 19.139,7.330 18.122 L 4.000 16.273 4.000 12.416 L 4.000 8.559 4.190 8.657 C 4.295 8.711,5.865 9.582,7.680 10.591 M17.986 14.041 C 17.653 14.094,17.003 14.324,16.738 14.484 C 16.005 14.926,15.485 15.564,15.215 16.352 C 14.910 17.242,14.950 18.101,15.335 18.973 C 15.676 19.744,16.454 20.464,17.261 20.756 C 17.644 20.894,18.180 21.000,18.500 21.000 C 18.838 21.000,19.380 20.889,19.789 20.736 L 20.170 20.593 20.775 21.192 C 21.473 21.882,21.621 21.977,22.000 21.977 C 22.562 21.977,22.977 21.562,22.977 21.000 C 22.977 20.621,22.882 20.473,22.192 19.775 L 21.593 19.170 21.736 18.789 C 21.889 18.380,22.000 17.838,22.000 17.500 C 22.000 17.385,21.973 17.136,21.940 16.946 C 21.650 15.282,20.301 14.085,18.640 14.021 C 18.409 14.012,18.115 14.021,17.986 14.041 M19.143 16.140 C 19.444 16.287,19.713 16.556,19.862 16.861 C 19.969 17.077,19.980 17.138,19.980 17.500 C 19.980 17.862,19.969 17.923,19.862 18.139 C 19.798 18.271,19.663 18.461,19.562 18.562 C 19.461 18.663,19.271 18.798,19.139 18.862 C 18.923 18.969,18.862 18.980,18.500 18.980 C 18.138 18.980,18.077 18.969,17.861 18.862 C 17.015 18.447,16.737 17.402,17.269 16.640 C 17.442 16.393,17.770 16.145,18.039 16.059 C 18.155 16.022,18.343 16.005,18.563 16.012 C 18.846 16.022,18.948 16.044,19.143 16.140 "
        stroke="none" fill-rule="evenodd"></path>
</svg>
