<svg width="24" height="24" viewBox="0 0 24 24" fill="none" xmlns="http://www.w3.org/2000/svg">
    <path
        d="M11.623 1.047 C 11.514 1.067,11.298 1.144,11.143 1.216 C 10.676 1.434,2.996 5.715,2.776 5.881 C 2.404 6.160,2.120 6.640,2.042 7.120 C 1.985 7.479,1.985 16.243,2.043 16.600 C 2.125 17.110,2.451 17.613,2.896 17.917 C 3.284 18.181,11.125 22.503,11.380 22.593 C 11.755 22.725,12.228 22.729,12.600 22.602 C 12.826 22.526,13.439 22.201,14.812 21.430 L 15.165 21.232 14.902 20.965 C 14.584 20.641,14.298 20.255,14.116 19.903 C 14.041 19.758,13.971 19.640,13.960 19.640 C 13.949 19.641,13.733 19.756,13.480 19.896 L 13.020 20.152 13.010 16.308 C 13.004 14.194,13.013 12.451,13.030 12.434 C 13.046 12.418,14.617 11.539,16.520 10.482 L 19.980 8.560 19.990 10.637 L 20.001 12.715 20.220 12.797 C 20.767 13.001,21.397 13.377,21.781 13.727 L 22.000 13.928 22.000 10.654 C 22.000 8.622,21.984 7.285,21.959 7.129 C 21.880 6.643,21.595 6.158,21.224 5.881 C 21.003 5.715,13.320 1.432,12.860 1.218 C 12.428 1.016,12.053 0.965,11.623 1.047 M15.470 4.921 C 17.334 5.957,18.875 6.819,18.893 6.837 C 18.911 6.855,17.367 7.736,15.461 8.795 L 11.996 10.720 8.536 8.795 C 6.632 7.736,5.090 6.854,5.107 6.837 C 5.196 6.749,11.987 3.004,12.030 3.019 C 12.057 3.029,13.605 3.885,15.470 4.921 M7.680 10.591 L 10.980 12.427 10.990 16.297 L 11.000 20.168 10.830 20.069 C 10.737 20.015,9.161 19.139,7.330 18.122 L 4.000 16.273 4.000 12.416 L 4.000 8.559 4.190 8.657 C 4.295 8.711,5.865 9.582,7.680 10.591 M17.986 14.041 C 17.653 14.094,17.003 14.324,16.738 14.484 C 16.005 14.926,15.485 15.564,15.215 16.352 C 14.910 17.242,14.950 18.101,15.335 18.973 C 15.676 19.744,16.454 20.464,17.261 20.756 C 17.644 20.894,18.180 21.000,18.500 21.000 C 18.838 21.000,19.380 20.889,19.789 20.736 L 20.170 20.593 20.775 21.192 C 21.473 21.882,21.621 21.977,22.000 21.977 C 22.562 21.977,22.977 21.562,22.977 21.000 C 22.977 20.621,22.882 20.473,22.192 19.775 L 21.593 19.170 21.736 18.789 C 21.889 18.380,22.000 17.838,22.000 17.500 C 22.000 17.385,21.973 17.136,21.940 16.946 C 21.650 15.282,20.301 14.085,18.640 14.021 C 18.409 14.012,18.115 14.021,17.986 14.041 M19.143 16.140 C 19.444 16.287,19.713 16.556,19.862 16.861 C 19.969 17.077,19.980 17.138,19.980 17.500 C 19.980 17.862,19.969 17.923,19.862 18.139 C 19.798 18.271,19.663 18.461,19.562 18.562 C 19.461 18.663,19.271 18.798,19.139 18.862 C 18.923 18.969,18.862 18.980,18.500 18.980 C 18.138 18.980,18.077 18.969,17.861 18.862 C 17.015 18.447,16.737 17.402,17.269 16.640 C 17.442 16.393,17.770 16.145,18.039 16.059 C 18.155 16.022,18.343 16.005,18.563 16.012 C 18.846 16.022,18.948 16.044,19.143 16.140 "
        stroke="none" fill-rule="evenodd"></path>
</svg>