<svg width="24" height="24" viewBox="0 0 24 24" fill="none" xmlns="http://www.w3.org/2000/svg">
    <path
        d="M7.897 5.252 C 6.095 7.895,4.409 10.368,4.150 10.747 L 3.680 11.437 4.080 11.708 C 4.300 11.857,4.480 11.989,4.480 12.000 C 4.480 12.011,4.300 12.143,4.080 12.292 L 3.680 12.563 4.150 13.253 C 4.409 13.632,6.094 16.105,7.896 18.748 L 11.173 23.553 11.586 23.276 L 12.000 22.998 12.414 23.276 L 12.827 23.553 16.104 18.748 C 17.906 16.105,19.591 13.632,19.850 13.253 L 20.320 12.563 19.920 12.292 C 19.700 12.143,19.520 12.011,19.520 12.000 C 19.520 11.989,19.700 11.857,19.920 11.708 L 20.320 11.437 19.850 10.747 C 19.591 10.368,17.905 7.895,16.103 5.252 L 12.826 0.445 12.413 0.727 L 12.000 1.008 11.587 0.727 L 11.174 0.445 7.897 5.252 M14.511 6.450 C 15.824 8.379,16.642 9.593,16.738 9.754 C 16.784 9.833,16.783 9.832,14.816 9.052 L 13.052 8.352 13.026 7.569 C 12.997 6.700,12.990 4.280,13.017 4.280 C 13.026 4.280,13.699 5.256,14.511 6.450 M10.995 6.620 C 10.997 7.280,10.988 7.939,10.975 8.084 L 10.950 8.347 9.185 9.050 C 7.154 9.858,7.218 9.835,7.273 9.734 C 7.322 9.644,8.761 7.514,10.020 5.665 L 10.940 4.315 10.965 4.868 C 10.979 5.171,10.992 5.960,10.995 6.620 M10.998 12.487 C 10.999 13.425,10.989 14.222,10.976 14.257 C 10.949 14.327,10.901 14.304,9.060 13.308 C 7.722 12.584,7.026 12.199,6.983 12.157 C 6.962 12.137,6.957 12.110,6.970 12.096 C 6.984 12.083,7.883 11.714,8.968 11.278 L 10.940 10.485 10.968 10.633 C 10.983 10.714,10.996 11.548,10.998 12.487 M14.920 11.236 C 16.913 12.031,17.040 12.084,17.040 12.122 C 17.040 12.159,16.749 12.325,15.380 13.070 C 13.740 13.962,13.064 14.315,13.031 14.295 C 12.996 14.273,12.988 10.546,13.023 10.510 C 13.036 10.497,13.130 10.521,13.233 10.562 C 13.336 10.603,14.095 10.907,14.920 11.236 M9.444 15.767 L 10.948 16.566 10.974 17.169 C 10.988 17.501,11.000 18.223,11.000 18.772 L 11.000 19.772 10.035 18.356 C 8.449 16.028,7.680 14.888,7.680 14.862 C 7.680 14.830,7.697 14.839,9.444 15.767 M15.778 15.688 C 15.475 16.134,14.730 17.229,14.123 18.120 L 13.020 19.740 13.007 18.960 C 13.000 18.531,13.007 17.817,13.022 17.374 L 13.049 16.568 13.894 16.116 C 15.519 15.248,16.297 14.844,16.313 14.859 C 16.321 14.868,16.081 15.241,15.778 15.688 "
        stroke="none" fill-rule="evenodd"></path>
</svg>