<svg width="32" height="32" viewBox="0 0 32 32" fill="none" xmlns="http://www.w3.org/2000/svg">
    <circle cx="16" cy="16" r="16" fill="white" />
    <path fill-rule="evenodd" clip-rule="evenodd"
        d="M24.9984 8.84211C25.1418 8.84211 25.2586 8.95618 25.2629 9.09856L25.2631 9.1068V22.7869C25.2631 22.8261 25.2543 22.865 25.2374 22.9005C25.1759 23.0299 25.023 23.0864 24.8926 23.0295L24.8848 23.0259L21.4914 21.4133C21.3332 21.3381 21.2313 21.1805 21.2271 21.006L21.227 20.9949V10.6656C21.227 10.4808 21.3368 10.314 21.5058 10.2407L21.5158 10.2365L24.8988 8.86158C24.9304 8.84872 24.9642 8.84211 24.9984 8.84211ZM7.00148 8.8421C7.03564 8.8421 7.06947 8.84872 7.10112 8.86158L10.4841 10.2365C10.6587 10.3075 10.7729 10.4772 10.7729 10.6656V20.9949C10.7729 21.1737 10.67 21.3365 10.5085 21.4133L7.11506 23.0259C6.98304 23.0887 6.82516 23.0325 6.76243 22.9004C6.74557 22.865 6.73682 22.8261 6.73682 22.7868V9.1068C6.73682 8.96061 6.85531 8.8421 7.00148 8.8421ZM16.2978 11.8302L19.4269 13.637C19.6111 13.7434 19.7246 13.94 19.7246 14.1528V17.7664C19.7246 17.9792 19.6111 18.1758 19.4269 18.2822L16.2978 20.089C16.1136 20.1954 15.8866 20.1954 15.7023 20.089L12.5732 18.2822C12.389 18.1758 12.2755 17.9792 12.2755 17.7664V14.1528C12.2755 13.94 12.389 13.7434 12.5732 13.637L15.7023 11.8302C15.8866 11.7238 16.1136 11.7238 16.2978 11.8302Z"
        fill="black" fill-opacity="0.5" />
</svg>