<svg width="24" height="24" viewBox="0 0 24 24" fill="none" xmlns="http://www.w3.org/2000/svg">
    <path
        d="M10.440 1.123 C 8.645 1.394,6.809 2.150,5.468 3.171 C 3.111 4.965,1.703 7.261,1.157 10.200 C 1.003 11.027,0.973 12.339,1.085 13.320 C 1.214 14.456,1.630 15.823,2.178 16.916 C 2.801 18.158,3.497 19.067,4.665 20.165 C 6.734 22.109,9.946 23.207,12.840 22.960 C 15.504 22.733,17.873 21.637,19.755 19.763 C 21.460 18.065,22.531 15.929,22.877 13.540 C 23.282 10.748,22.542 7.791,20.874 5.531 C 20.307 4.763,19.551 3.970,18.840 3.397 C 18.096 2.798,16.765 2.048,15.840 1.708 C 14.985 1.393,13.980 1.157,13.180 1.081 C 12.456 1.013,11.021 1.035,10.440 1.123 M13.320 3.098 C 14.645 3.291,15.854 3.765,17.062 4.565 C 17.517 4.867,17.595 4.934,17.563 4.991 C 17.542 5.029,17.065 5.519,16.502 6.080 L 15.478 7.100 15.309 7.004 C 14.446 6.517,13.871 6.284,13.160 6.132 C 12.895 6.076,12.640 6.060,12.000 6.060 C 11.360 6.060,11.105 6.076,10.840 6.132 C 10.128 6.284,9.420 6.568,8.786 6.957 L 8.532 7.112 7.457 6.037 C 6.798 5.377,6.397 4.948,6.421 4.927 C 6.537 4.822,6.951 4.542,7.320 4.319 C 8.557 3.573,9.830 3.161,11.320 3.025 C 11.671 2.993,12.906 3.038,13.320 3.098 M6.028 7.449 C 6.607 8.026,7.080 8.512,7.080 8.529 C 7.080 8.547,6.983 8.729,6.863 8.936 C 6.289 9.932,6.027 10.890,6.028 12.000 C 6.028 13.094,6.316 14.142,6.879 15.094 C 6.989 15.281,7.080 15.450,7.080 15.468 C 7.080 15.487,6.603 15.978,6.020 16.560 L 4.959 17.617 4.756 17.339 C 3.859 16.110,3.298 14.720,3.075 13.180 C 2.997 12.642,3.007 11.285,3.094 10.720 C 3.245 9.730,3.489 8.944,3.919 8.060 C 4.164 7.556,4.881 6.400,4.949 6.400 C 4.964 6.400,5.450 6.872,6.028 7.449 M19.620 7.220 C 21.268 9.830,21.444 13.160,20.083 15.940 C 19.832 16.452,19.117 17.600,19.049 17.600 C 19.010 17.600,16.920 15.509,16.920 15.470 C 16.920 15.453,17.016 15.273,17.133 15.070 C 17.768 13.966,18.048 12.776,17.957 11.560 C 17.887 10.614,17.625 9.779,17.132 8.936 C 17.016 8.737,16.920 8.556,16.920 8.535 C 16.920 8.515,17.397 8.022,17.980 7.441 L 19.039 6.384 19.216 6.622 C 19.313 6.753,19.495 7.022,19.620 7.220 M12.545 8.043 C 13.520 8.179,14.500 8.733,15.103 9.490 C 15.425 9.895,15.761 10.568,15.886 11.060 C 16.014 11.568,16.015 12.422,15.887 12.938 C 15.713 13.636,15.322 14.323,14.802 14.841 C 14.302 15.340,13.704 15.682,13.002 15.872 C 12.669 15.962,12.541 15.975,12.000 15.975 C 11.459 15.975,11.331 15.962,10.998 15.872 C 10.296 15.682,9.698 15.340,9.198 14.841 C 8.133 13.779,7.743 12.231,8.187 10.825 C 8.625 9.436,9.786 8.368,11.145 8.103 C 11.700 7.995,12.082 7.979,12.545 8.043 M8.795 17.056 C 10.389 18.016,12.170 18.233,13.880 17.675 C 14.273 17.546,14.813 17.294,15.205 17.057 C 15.329 16.981,15.446 16.920,15.465 16.920 C 15.507 16.920,17.600 19.007,17.600 19.049 C 17.600 19.118,16.397 19.866,15.903 20.104 C 13.003 21.498,9.646 21.251,6.950 19.445 C 6.647 19.242,6.400 19.064,6.400 19.050 C 6.400 19.009,8.493 16.920,8.534 16.920 C 8.553 16.920,8.671 16.981,8.795 17.056 "
        stroke="none" fill-rule="evenodd"></path>
</svg>