<svg width="24" height="24" viewBox="0 0 24 24" fill="none" xmlns="http://www.w3.org/2000/svg">
    <path
        d="M5.651 1.062 C 5.285 1.245,4.962 1.684,4.962 2.000 C 4.962 2.202,5.079 2.430,5.339 2.737 C 5.465 2.885,5.561 3.011,5.554 3.018 C 5.546 3.024,5.363 3.059,5.147 3.095 C 3.912 3.300,2.746 4.028,1.962 5.081 C 1.384 5.859,1.035 6.901,1.025 7.880 C 1.017 8.672,1.277 8.970,1.975 8.973 C 2.382 8.975,2.557 8.917,2.733 8.723 C 2.910 8.527,2.945 8.411,3.018 7.774 C 3.054 7.461,3.116 7.144,3.173 6.988 C 3.424 6.296,4.017 5.637,4.700 5.290 C 4.887 5.195,5.435 5.022,5.463 5.050 C 5.473 5.060,5.398 5.174,5.296 5.304 C 4.957 5.735,4.892 5.987,5.038 6.308 C 5.200 6.666,5.678 7.040,5.973 7.040 C 6.328 7.040,6.420 6.968,7.897 5.540 C 8.933 4.537,9.017 4.422,9.017 4.000 C 9.017 3.575,8.948 3.483,7.781 2.353 C 6.630 1.239,6.424 1.062,6.208 1.002 C 5.983 0.939,5.874 0.951,5.651 1.062 M14.815 1.115 C 12.465 1.544,10.432 3.163,9.557 5.303 C 9.225 6.113,9.121 6.691,9.257 6.955 C 9.414 7.258,9.838 7.485,10.254 7.488 C 10.759 7.493,10.942 7.319,11.195 6.593 C 11.535 5.618,11.930 4.980,12.562 4.385 C 13.770 3.249,15.359 2.789,16.978 3.106 C 18.929 3.488,20.495 5.054,20.895 7.020 C 21.039 7.726,21.007 8.691,20.818 9.343 C 20.529 10.341,19.915 11.259,19.098 11.916 C 18.587 12.327,18.307 12.470,17.160 12.901 C 16.771 13.047,16.587 13.223,16.526 13.508 C 16.429 13.961,16.650 14.518,17.005 14.718 C 17.241 14.850,17.636 14.819,18.220 14.622 C 19.162 14.304,20.073 13.750,20.799 13.054 C 21.942 11.959,22.603 10.718,22.884 9.138 C 22.982 8.585,23.003 7.586,22.926 7.060 C 22.632 5.041,21.490 3.248,19.791 2.143 C 19.098 1.692,18.302 1.361,17.460 1.173 C 17.083 1.088,16.891 1.072,16.120 1.058 C 15.368 1.044,15.153 1.054,14.815 1.115 M7.391 9.044 C 4.288 9.350,1.814 11.554,1.154 14.600 C 1.073 14.972,1.063 15.133,1.061 16.000 C 1.060 17.096,1.102 17.387,1.389 18.240 C 2.069 20.266,3.734 21.931,5.760 22.611 C 6.611 22.897,6.905 22.940,8.000 22.940 C 8.882 22.940,9.022 22.931,9.400 22.846 C 12.183 22.224,14.224 20.183,14.846 17.400 C 14.931 17.022,14.940 16.882,14.940 16.000 C 14.940 15.118,14.931 14.978,14.846 14.600 C 14.668 13.802,14.370 13.048,13.969 12.380 C 13.540 11.663,12.760 10.829,12.037 10.310 C 11.354 9.820,10.278 9.342,9.500 9.184 C 8.843 9.051,7.933 8.990,7.391 9.044 M8.720 11.059 C 9.278 11.145,9.646 11.258,10.140 11.497 C 11.588 12.197,12.561 13.445,12.904 15.042 C 13.005 15.511,13.005 16.489,12.904 16.958 C 12.564 18.540,11.606 19.778,10.180 20.482 C 9.402 20.865,8.572 21.036,7.720 20.987 C 6.459 20.915,5.402 20.440,4.499 19.540 C 3.912 18.956,3.512 18.317,3.247 17.540 C 3.064 17.006,3.028 16.691,3.050 15.801 C 3.072 14.886,3.137 14.605,3.497 13.860 C 4.458 11.869,6.582 10.730,8.720 11.059 M21.720 15.035 C 21.424 15.100,21.211 15.269,21.105 15.522 C 21.072 15.600,21.025 15.852,21.001 16.082 C 20.920 16.824,20.823 17.136,20.523 17.611 C 20.327 17.920,19.825 18.407,19.508 18.595 C 19.273 18.734,18.627 18.976,18.555 18.952 C 18.532 18.944,18.598 18.830,18.701 18.699 C 19.043 18.265,19.108 18.014,18.962 17.692 C 18.793 17.320,18.319 16.959,18.002 16.961 C 17.676 16.963,17.538 17.072,16.103 18.460 C 15.141 19.391,15.016 19.553,14.974 19.913 C 14.958 20.048,14.977 20.167,15.039 20.340 C 15.119 20.561,15.189 20.642,15.933 21.373 C 17.464 22.876,17.669 23.040,18.027 23.040 C 18.322 23.040,18.800 22.666,18.962 22.308 C 19.114 21.972,19.038 21.707,18.661 21.263 C 18.535 21.115,18.439 20.989,18.446 20.983 C 18.454 20.977,18.604 20.950,18.780 20.923 C 19.484 20.815,20.353 20.456,20.920 20.038 C 21.230 19.810,21.838 19.194,22.079 18.864 C 22.632 18.108,22.969 17.059,22.975 16.080 C 22.977 15.627,22.920 15.444,22.713 15.252 C 22.514 15.066,22.047 14.964,21.720 15.035 "
        stroke="none" fill-rule="evenodd"></path>
</svg>