<svg width="24" height="24" viewBox="0 0 24 24" fill="none" xmlns="http://www.w3.org/2000/svg">
    <path
        d="M12.433 2.042 C 11.856 2.129,11.224 2.378,10.731 2.712 C 9.965 3.233,9.408 4.018,9.131 4.968 L 9.023 5.340 9.010 8.930 L 8.997 12.520 8.545 12.520 C 7.993 12.520,7.596 12.611,7.140 12.840 C 6.562 13.131,6.105 13.595,5.822 14.180 C 5.514 14.815,5.512 14.835,5.484 16.840 L 5.460 18.620 5.352 18.825 C 5.130 19.245,4.704 19.496,4.217 19.492 C 3.771 19.489,3.381 19.245,3.157 18.832 L 3.020 18.580 3.009 14.707 C 2.998 10.929,3.000 10.835,3.073 10.858 C 3.930 11.130,4.934 10.988,5.660 10.493 C 7.230 9.423,7.455 7.238,6.132 5.904 C 6.005 5.776,5.823 5.617,5.729 5.553 C 5.635 5.488,5.568 5.420,5.580 5.401 C 5.591 5.382,5.998 5.039,6.483 4.638 C 6.968 4.238,7.409 3.844,7.463 3.762 C 7.897 3.106,7.422 2.240,6.628 2.240 C 6.442 2.240,6.326 2.264,6.197 2.331 C 5.992 2.436,2.407 5.385,1.957 5.819 C 1.611 6.152,1.395 6.458,1.236 6.837 C 0.992 7.423,1.000 7.197,1.000 13.140 C 1.000 19.097,0.990 18.838,1.242 19.470 C 1.461 20.019,1.878 20.543,2.380 20.900 C 3.029 21.361,3.836 21.572,4.590 21.479 C 6.006 21.304,7.057 20.365,7.427 18.944 C 7.479 18.747,7.496 18.361,7.515 16.937 L 7.540 15.173 7.661 14.978 C 7.736 14.857,7.857 14.736,7.978 14.661 C 8.156 14.550,8.209 14.539,8.584 14.526 L 8.995 14.513 9.010 16.586 L 9.025 18.660 9.134 19.038 C 9.490 20.272,10.367 21.256,11.520 21.715 C 11.685 21.781,12.006 21.872,12.232 21.919 C 12.636 22.001,12.723 22.002,16.132 21.991 L 19.620 21.979 20.011 21.872 C 21.515 21.458,22.608 20.291,22.918 18.770 C 23.001 18.363,23.001 18.313,22.991 11.870 L 22.980 5.380 22.874 4.995 C 22.611 4.045,22.044 3.239,21.269 2.712 C 20.928 2.481,20.352 2.217,19.958 2.113 C 19.621 2.024,19.605 2.023,16.140 2.016 C 14.226 2.012,12.558 2.023,12.433 2.042 M19.383 4.043 C 20.151 4.184,20.816 4.849,20.957 5.617 C 21.017 5.950,21.017 18.050,20.957 18.383 C 20.819 19.138,20.170 19.797,19.408 19.956 C 19.113 20.017,12.887 20.017,12.592 19.956 C 11.830 19.797,11.181 19.138,11.043 18.383 C 10.983 18.050,10.983 5.950,11.043 5.617 C 11.180 4.868,11.847 4.187,12.580 4.047 C 12.871 3.992,19.081 3.988,19.383 4.043 M4.340 7.066 C 4.709 7.192,5.000 7.604,5.000 8.000 C 5.000 8.242,4.881 8.521,4.701 8.701 C 4.310 9.092,3.690 9.092,3.299 8.701 C 2.907 8.309,2.908 7.690,3.300 7.298 C 3.577 7.020,3.957 6.936,4.340 7.066 M16.640 7.068 C 16.488 7.120,16.211 7.378,14.847 8.735 C 13.960 9.618,13.189 10.416,13.134 10.508 C 12.999 10.736,12.970 11.049,13.059 11.317 C 13.184 11.694,13.286 11.764,14.840 12.540 C 15.621 12.930,16.268 13.256,16.278 13.265 C 16.287 13.274,15.808 13.772,15.213 14.371 C 14.266 15.324,14.123 15.485,14.066 15.657 C 13.936 16.046,14.020 16.423,14.299 16.701 C 14.577 16.979,14.954 17.064,15.343 16.935 C 15.519 16.876,15.712 16.698,17.171 15.245 C 18.316 14.104,18.828 13.568,18.888 13.444 C 19.006 13.200,19.024 12.934,18.941 12.682 C 18.816 12.306,18.713 12.236,17.160 11.460 C 16.379 11.070,15.732 10.744,15.722 10.735 C 15.713 10.726,16.192 10.228,16.787 9.629 C 17.734 8.676,17.877 8.515,17.934 8.343 C 18.064 7.954,17.980 7.577,17.701 7.299 C 17.423 7.021,17.027 6.935,16.640 7.068 "
        stroke="none" fill-rule="evenodd"></path>
</svg>