<svg width="24" height="24" viewBox="0 0 24 24" fill="none" xmlns="http://www.w3.org/2000/svg">
    <path
        d="M6.640 1.067 C 5.958 1.145,5.350 1.338,4.905 1.616 C 3.873 2.262,3.309 3.144,3.076 4.480 C 2.999 4.919,2.998 19.078,3.075 19.520 C 3.383 21.296,4.393 22.426,6.046 22.844 C 6.347 22.920,6.560 22.932,8.180 22.967 C 9.170 22.989,11.627 22.996,13.640 22.983 C 17.442 22.960,17.547 22.955,18.140 22.785 C 19.503 22.395,20.458 21.411,20.826 20.020 L 20.931 19.620 20.968 17.220 C 20.989 15.900,20.996 12.543,20.984 9.760 C 20.960 4.346,20.963 4.408,20.757 3.738 C 20.410 2.605,19.528 1.691,18.404 1.299 C 17.701 1.053,18.082 1.068,12.180 1.059 C 9.210 1.054,6.717 1.058,6.640 1.067 M16.839 3.060 L 17.578 3.079 17.871 3.219 C 18.452 3.495,18.851 4.038,18.921 4.649 C 18.972 5.092,18.972 18.908,18.921 19.351 C 18.850 19.970,18.454 20.504,17.852 20.791 L 17.540 20.940 16.100 20.966 C 15.308 20.980,13.463 20.992,12.000 20.992 C 10.537 20.992,8.692 20.980,7.900 20.966 L 6.460 20.940 6.148 20.791 C 5.561 20.511,5.157 19.980,5.080 19.389 C 5.029 19.000,5.030 4.996,5.081 4.607 C 5.164 3.964,5.685 3.338,6.309 3.129 C 6.462 3.078,6.769 3.060,7.860 3.041 C 9.323 3.015,15.623 3.028,16.839 3.060 M8.700 6.036 C 7.452 6.063,7.432 6.067,7.195 6.361 C 6.999 6.603,6.961 7.130,7.112 7.521 C 7.172 7.677,7.399 7.876,7.578 7.931 C 7.702 7.968,8.738 7.980,12.000 7.980 C 15.978 7.980,16.272 7.975,16.443 7.909 C 16.803 7.770,16.969 7.485,16.972 7.000 C 16.974 6.610,16.914 6.442,16.705 6.249 C 16.553 6.109,16.504 6.088,16.277 6.067 C 15.905 6.032,10.022 6.008,8.700 6.036 M8.440 10.036 C 7.483 10.063,7.423 10.078,7.195 10.361 C 6.999 10.603,6.961 11.130,7.112 11.521 C 7.172 11.677,7.399 11.876,7.578 11.931 C 7.701 11.968,8.531 11.980,11.000 11.980 C 14.021 11.980,14.273 11.975,14.443 11.909 C 14.803 11.770,14.969 11.485,14.972 11.000 C 14.973 10.835,14.952 10.636,14.926 10.558 C 14.855 10.345,14.603 10.118,14.394 10.079 C 14.169 10.037,9.563 10.004,8.440 10.036 M7.980 14.035 C 7.532 14.063,7.386 14.124,7.195 14.361 C 7.046 14.544,6.984 14.870,7.035 15.187 C 7.087 15.505,7.129 15.600,7.284 15.752 C 7.503 15.966,7.611 15.980,9.000 15.980 C 10.109 15.980,10.282 15.972,10.443 15.909 C 10.810 15.768,10.971 15.484,10.970 14.980 C 10.969 14.804,10.948 14.606,10.922 14.540 C 10.853 14.362,10.602 14.123,10.441 14.082 C 10.260 14.035,8.504 14.001,7.980 14.035 "
        stroke="none" fill-rule="evenodd"></path>
</svg>