<svg width="32" height="32" viewBox="0 0 32 32" fill="none" xmlns="http://www.w3.org/2000/svg">
    <circle cx="16" cy="16" r="16" fill="white" />
    <path
        d="M26.1018 10.3188C25.5295 11.136 24.8369 11.832 24.0239 12.407C24.0327 12.5233 24.0371 12.6982 24.0371 12.9319C24.0371 14.0157 23.8746 15.0969 23.5496 16.1754C23.2246 17.2539 22.7312 18.2892 22.0692 19.2813C21.4072 20.2734 20.6189 21.1508 19.7041 21.9136C18.7894 22.6763 17.6865 23.2849 16.3953 23.7394C15.1042 24.1938 13.7239 24.421 12.2544 24.421C9.93806 24.421 7.81809 23.8167 5.89453 22.608C6.19324 22.6411 6.52642 22.6576 6.89406 22.6576C8.81762 22.6576 10.5316 22.0827 12.0361 20.9327C11.1389 20.9156 10.3352 20.6468 9.62512 20.1262C8.915 19.6056 8.42755 18.941 8.16276 18.1324C8.44506 18.174 8.70602 18.1948 8.94564 18.1948C9.31328 18.1948 9.67655 18.1489 10.0354 18.0572C9.07804 17.8652 8.28531 17.4006 7.65725 16.6634C7.02919 15.9263 6.71516 15.0702 6.71516 14.0952V14.0456C7.29617 14.3624 7.9204 14.5331 8.58785 14.5576C8.02325 14.1907 7.57464 13.7117 7.24201 13.1207C6.90938 12.5297 6.74252 11.888 6.74142 11.1957C6.74142 10.4618 6.92962 9.78276 7.30602 9.15869C8.34001 10.4004 9.59886 11.3941 11.0826 12.1398C12.5663 12.8855 14.1539 13.2999 15.8455 13.3831C15.7777 13.0663 15.7438 12.758 15.7438 12.4582C15.7438 11.3413 16.1475 10.3892 16.955 9.60194C17.7625 8.81466 18.7391 8.42102 19.8847 8.42102C21.0817 8.42102 22.0905 8.84613 22.9112 9.69635C23.8434 9.5214 24.7198 9.19657 25.5405 8.72185C25.2242 9.67981 24.6175 10.4218 23.7203 10.9477C24.5158 10.8645 25.3107 10.6559 26.1051 10.322L26.1018 10.3188Z"
        fill="black" fill-opacity="0.5" />
</svg>