<svg width="24" height="24" viewBox="0 0 24 24" fill="none" xmlns="http://www.w3.org/2000/svg">
    <path
        d="M0 12C0 5.37259 5.37259 0 12 0C18.6274 0 24 5.37259 24 12C24 18.6274 18.6274 24 12 24C5.37259 24 0 18.6274 0 12Z"
        fill="#22306D"></path>
    <circle cx="12" cy="12" r="12" fill="#22306D"></circle>
    <path fill-rule="evenodd" clip-rule="evenodd"
        d="M6.16388 12.0231C6.16388 9.97664 7.81506 8.32257 9.84585 8.32257C11.8696 8.32257 13.5164 9.96525 13.5278 12.0019H11.9615L9.80094 9.63361L7.60177 12.0442H9.11912C9.12487 13.4519 9.70441 14.7249 10.6359 15.6384C10.3817 15.6942 10.1174 15.7236 9.84585 15.7236C7.81506 15.7236 6.16388 14.0695 6.16388 12.0231ZM10.4725 12.0442C10.4838 14.0809 12.1306 15.7236 14.1544 15.7236C16.1852 15.7236 17.8364 14.0695 17.8364 12.0231C17.8364 9.97664 16.1852 8.32257 14.1544 8.32257C13.8829 8.32257 13.6186 8.35201 13.3644 8.40781C14.2958 9.32133 14.8754 10.5943 14.8811 12.0019H16.3561L14.157 14.4126L11.9964 12.0442H10.4725ZM11.9998 16.5923C11.3461 16.9033 10.6153 17.0769 9.84585 17.0769C7.06222 17.0769 4.81055 14.8115 4.81055 12.0231C4.81055 9.23464 7.06222 6.96924 9.84585 6.96924C10.6171 6.96924 11.3474 7.14312 12.0004 7.45385C12.6542 7.14292 13.3849 6.96924 14.1544 6.96924C16.938 6.96924 19.1897 9.23464 19.1897 12.0231C19.1897 14.8115 16.938 17.0769 14.1544 17.0769C13.3832 17.0769 12.6528 16.9031 11.9998 16.5923Z"
        fill="#F36EAE"></path>
</svg>