<svg width="24" height="24" viewBox="0 0 24 24" fill="none" xmlns="http://www.w3.org/2000/svg">
    <circle cx="12" cy="12" r="12" fill="#FFC54D"></circle>
    <path fill-rule="evenodd" clip-rule="evenodd"
        d="M6.61419 11.0177L8.37033 7.99406C9.98362 5.21296 14.0169 5.21296 15.6301 7.98988L17.3863 11.0177C18.9996 13.7988 16.983 17.2742 13.7564 17.2742H10.2441C7.01751 17.2742 5.0009 13.7988 6.61419 11.0177ZM9.67909 12.9192L9.92323 12.5015C10.1499 12.1181 10.7138 12.1181 10.9376 12.5015L11.1817 12.9192C11.4085 13.3026 11.1265 13.7832 10.676 13.7832H10.1848C9.73431 13.7832 9.45529 13.3026 9.67909 12.9192ZM9.10829 10.8909C9.90214 9.51657 11.883 9.51657 12.6768 10.8909L12.6773 10.8917L13.3829 12.1207L13.3831 12.1211C14.1763 13.4949 13.1849 15.214 11.6004 15.214H10.1847C8.60026 15.214 7.60883 13.4949 8.40202 12.1211L8.40226 12.1207L9.1078 10.8917L9.10829 10.8909ZM9.74798 11.2598L9.74773 11.2602L9.0422 12.4892L9.04171 12.49C8.53191 13.3726 9.16973 14.4755 10.1847 14.4755H11.6004C12.6154 14.4755 13.2532 13.3726 12.7434 12.49L12.7429 12.4892L12.0374 11.2602L12.0372 11.2598C11.5275 10.3782 10.2576 10.3782 9.74798 11.2598ZM14.3712 9.22094L14.3709 9.22042C13.0624 6.93849 9.77091 6.94072 8.45506 9.21989L8.45503 9.21995L7.17664 11.4332L7.1766 11.4333C5.86042 13.7132 7.50316 16.5639 10.1365 16.5639H12.6892C15.3225 16.5639 16.9653 13.7132 15.6491 11.4333L15.649 11.4332L14.3712 9.22094ZM9.09456 9.58917C10.1273 7.80034 12.7069 7.80242 13.7305 9.58818L13.7312 9.58923L15.0095 11.8025L15.0096 11.8026C16.0419 13.591 14.7531 15.8254 12.6892 15.8254H10.1365C8.0726 15.8254 6.78373 13.591 7.8161 11.8026L7.81614 11.8025L9.09452 9.58923L9.09456 9.58917Z"
        fill="#552822"></path>
</svg>