<svg width="30" height="30" viewBox="0 0 30 30" fill="none" xmlns="http://www.w3.org/2000/svg">
    <path
        d="M0 15C0 6.71573 6.71573 0 15 0V0C23.2843 0 30 6.71573 30 15V15C30 23.2843 23.2843 30 15 30V30C6.71573 30 0 23.2843 0 15V15Z"
        fill="black" />
    <path fill-rule="evenodd" clip-rule="evenodd"
        d="M11.5037 8.36523C11.2397 8.36523 11.0126 8.55181 10.9614 8.81072L9.6552 15.4123C10.7043 14.4321 12.109 13.8431 13.6289 13.8411L14.0429 11.7713H16.4074C17.2756 11.7713 17.9795 12.4751 17.9795 13.3433C17.9795 14.2115 17.2756 14.9153 16.4074 14.9153H13.68L13.6787 15.0622C11.4593 15.0422 9.54071 16.6064 9.11322 18.7843L8.80248 20.3674L8.67956 20.3433L8.50571 21.2219C8.46345 21.4355 8.6269 21.6345 8.84463 21.6345H11.6473C11.91 21.6345 12.1364 21.4496 12.1889 21.1922L12.2226 21.0273C12.5377 19.4829 13.8961 18.3737 15.4723 18.3737H16.5321C19.296 18.3737 21.5366 16.1332 21.5366 13.3695C21.5366 10.6057 19.296 8.36523 16.5321 8.36523H11.5037Z"
        fill="white" />
</svg>