<svg width="42" height="42" viewBox="0 0 42 42" fill="none" xmlns="http://www.w3.org/2000/svg">
    <path
        d="M21 41.5C32.3218 41.5 41.5 32.3218 41.5 21C41.5 9.67816 32.3218 0.5 21 0.5C9.67816 0.5 0.5 9.67816 0.5 21C0.5 32.3218 9.67816 41.5 21 41.5Z"
        fill="white" stroke="white" />
    <path opacity="0.7" fill-rule="evenodd" clip-rule="evenodd"
        d="M21.0002 1C9.9539 1 1.00024 9.95463 1.00024 21.0006C1.00024 32.0454 9.9539 41 21.0002 41C32.0466 41 41.0002 32.0454 41.0002 21.0006C41.0002 9.95463 32.0466 1 21.0002 1ZM20.7275 32.0671L13.427 21.7412L20.7275 26.0146V32.0671ZM20.7278 24.5009L13.3777 20.1963L20.7278 16.9766V24.5009ZM20.7278 16.4585L13.6145 19.5743L20.7278 7.62402V16.4585ZM21.2014 7.62109L28.4141 19.6199L21.2014 16.459V7.62109ZM21.2014 32.0671V26.0146L28.5007 21.7412L21.2014 32.0671ZM21.2014 24.5009V16.9766L28.5562 20.1986L21.2014 24.5009Z"
        fill="url(#paint0_linear_24_2183)" />
    <defs>
        <linearGradient id="paint0_linear_24_2183" x1="1.00024" y1="1" x2="1.00024" y2="41"
            gradientUnits="userSpaceOnUse">
            <stop stop-color="#3260E6" />
            <stop offset="1" stop-color="#212EE5" />
        </linearGradient>
    </defs>
</svg>