<svg width="40" height="40" viewBox="0 0 40 40" fill="none" xmlns="http://www.w3.org/2000/svg">
    <circle cx="20" cy="20" r="20" fill="#5959D8" />
    <path
        d="M10.0648 10.5843C9.88194 10.647 9.71425 10.7427 9.56871 10.8644C9.41559 10.992 9.29205 11.1438 9.19974 11.3104C9.07253 11.5391 9 11.8027 9 12.0835V27.9167C9 28.2287 9.08957 28.5196 9.24421 28.7648C9.30889 28.8676 9.38606 28.9639 9.47531 29.0512C9.75841 29.3289 10.1451 29.5 10.5714 29.5C10.8546 29.5 11.1203 29.4245 11.3497 29.2924C11.513 29.1988 11.6617 29.0743 11.7866 28.9206C11.8152 28.8855 11.8423 28.8492 11.8679 28.8117L15.3964 23.775L13.473 21.0294L12.1661 22.9281V17.0719L18.7162 26.4547C19.0107 26.875 19.4894 27.125 20 27.125C20.5106 27.125 20.9893 26.875 21.2838 26.4547L27.8339 17.0722V22.9277L26.5271 21.0296L24.6037 23.7751L28.1249 28.8013C28.1773 28.8796 28.2365 28.9529 28.3016 29.0203C28.3848 29.1068 28.4762 29.182 28.5737 29.2456C28.8197 29.4065 29.1132 29.5 29.4283 29.5C29.8159 29.5 30.1706 29.3587 30.4446 29.1243C30.6094 28.9839 30.7391 28.8151 30.8315 28.6302C30.9153 28.4633 30.9706 28.2795 30.9909 28.0852C30.998 28.0193 31.0009 27.9529 30.9997 27.8864V12.1135C31.001 12.0422 30.9975 11.971 30.9893 11.9004C30.9706 11.7363 30.9269 11.5798 30.8623 11.4349C30.7515 11.1856 30.5752 10.962 30.3382 10.7925C30.2641 10.7393 30.1852 10.6925 30.1023 10.6528C29.8461 10.5299 29.568 10.4826 29.2969 10.5057C29.084 10.5234 28.8832 10.5839 28.7029 10.6786C28.5252 10.7716 28.3631 10.9 28.2277 11.0619C28.1928 11.1036 28.16 11.1471 28.1294 11.1922L20 22.7961L11.8553 11.1704C11.691 10.9358 11.4749 10.7599 11.2336 10.6472C11.0741 10.5724 10.9 10.5238 10.7168 10.5069C10.4993 10.4864 10.277 10.5114 10.0648 10.5843Z"
        fill="white" />
    <path
        d="M20 17.2039L21.2376 18.9704L23.1611 16.2248L21.2838 13.5452C20.9893 13.1249 20.5106 12.875 20 12.875C19.4894 12.875 19.0107 13.1249 18.7162 13.5452L16.839 16.2247L18.7625 18.9703L20 17.2039Z"
        fill="white" />
</svg>