<svg width="45" height="48" viewBox="0 0 45 48" fill="none" xmlns="http://www.w3.org/2000/svg">
    <path
        d="M11.5607 4.56857C16.8995 1.52286 19.5688 0 22.5 0C25.4312 0 28.1005 1.52286 33.4393 4.56857L34.0607 4.92311C39.3995 7.96882 42.0688 9.49168 43.5344 12C45 14.5083 45 17.554 45 23.6455V24.3545C45 30.446 45 33.4917 43.5344 36C42.0688 38.5083 39.3995 40.0312 34.0607 43.0769L33.4393 43.4314C28.1005 46.4771 25.4312 48 22.5 48C19.5688 48 16.8995 46.4771 11.5607 43.4314L10.9393 43.0769C5.60053 40.0312 2.93117 38.5083 1.46558 36C0 33.4917 0 30.446 0 24.3545V23.6455C0 17.554 0 14.5083 1.46558 12C2.93117 9.49168 5.60053 7.96882 10.9393 4.92311L11.5607 4.56857Z"
        fill="#5959D8" />
    <path
        d="M11.0472 13.2283C10.8364 13.3 10.6431 13.4095 10.4754 13.5487C10.2989 13.6946 10.1565 13.8684 10.0501 14.0589C9.90343 14.3205 9.81982 14.6222 9.81982 14.9434V33.0566C9.81982 33.4135 9.92307 33.7463 10.1013 34.0268C10.1759 34.1445 10.2648 34.2546 10.3677 34.3545C10.694 34.6722 11.1397 34.8679 11.6311 34.8679C11.9576 34.8679 12.2638 34.7816 12.5283 34.6305C12.7165 34.5234 12.8879 34.381 13.0319 34.205C13.0648 34.1649 13.0961 34.1234 13.1255 34.0805L17.1928 28.3185L14.9757 25.1776L13.4425 27.3496V20.6501L21.0194 31.3841C21.3588 31.8649 21.9107 32.1509 22.4992 32.1509C23.0878 32.1509 23.6396 31.8649 23.979 31.3841L31.5557 20.6505V27.3492L30.0229 25.1777L27.8057 28.3186L31.8646 34.0686C31.925 34.1582 31.9932 34.242 32.0682 34.3192C32.1641 34.4181 32.2695 34.5041 32.3819 34.5769C32.6655 34.761 33.0037 34.8679 33.367 34.8679C33.8137 34.8679 34.2226 34.7062 34.5384 34.4381C34.7284 34.2775 34.8779 34.0844 34.9844 33.8728C35.0809 33.6819 35.1447 33.4716 35.1682 33.2493C35.1763 33.1739 35.1797 33.098 35.1783 33.0219V14.9777C35.1798 14.8961 35.1758 14.8147 35.1663 14.7339C35.1447 14.5461 35.0944 14.3671 35.0198 14.2013C34.8921 13.9162 34.6889 13.6603 34.4158 13.4664C34.3304 13.4056 34.2394 13.3521 34.1439 13.3067C33.8486 13.1661 33.528 13.1119 33.2155 13.1383C32.9701 13.1586 32.7386 13.2278 32.5308 13.3362C32.326 13.4426 32.1391 13.5895 31.9831 13.7747C31.9428 13.8223 31.905 13.8721 31.8697 13.9237L22.4992 27.1986L13.1111 13.8987C12.9216 13.6304 12.6725 13.4291 12.3944 13.3003C12.2105 13.2147 12.0099 13.1591 11.7987 13.1397C11.548 13.1163 11.2917 13.1448 11.0472 13.2283Z"
        fill="white" />
    <path
        d="M22.4992 20.8011L23.9258 22.822L26.1429 19.6811L23.979 16.6156C23.6396 16.1348 23.0878 15.8488 22.4992 15.8488C21.9107 15.8488 21.3588 16.1348 21.0194 16.6156L18.8557 19.6809L21.0728 22.8219L22.4992 20.8011Z"
        fill="white" />
</svg>