<svg width="24" height="24" viewBox="0 0 24 24" fill="none" xmlns="http://www.w3.org/2000/svg">
    <path opacity="0.7" fill-rule="evenodd" clip-rule="evenodd"
        d="M7.7587 3H16.2413H16.2413C17.0463 2.99999 17.7106 2.99998 18.2518 3.0442C18.8139 3.09012 19.3306 3.18868 19.816 3.43598C20.5686 3.81947 21.1805 4.43139 21.564 5.18404C21.8113 5.66938 21.9099 6.18608 21.9558 6.74818C22 7.28937 22 7.95372 22 8.75868V15.2413C22 16.0463 22 16.7106 21.9558 17.2518C21.9099 17.8139 21.8113 18.3306 21.564 18.816C21.1805 19.5686 20.5686 20.1805 19.816 20.564C19.3306 20.8113 18.8139 20.9099 18.2518 20.9558C17.7106 21 17.0463 21 16.2413 21H7.75868C6.95372 21 6.28936 21 5.74818 20.9558C5.18608 20.9099 4.66937 20.8113 4.18404 20.564C3.43139 20.1805 2.81947 19.5686 2.43598 18.816C2.18868 18.3306 2.09012 17.8139 2.04419 17.2518C1.99998 16.7106 1.99999 16.0463 2 15.2413V15.2413V8.7587V8.75867C1.99999 7.95371 1.99998 7.28936 2.04419 6.74818C2.09012 6.18608 2.18868 5.66938 2.43598 5.18404C2.81947 4.43139 3.43139 3.81947 4.18404 3.43598C4.66937 3.18868 5.18608 3.09012 5.74818 3.0442C6.28936 2.99998 6.95371 2.99999 7.75866 3H7.7587ZM5.91104 5.03755C5.47262 5.07337 5.24842 5.1383 5.09202 5.21799C4.7157 5.40973 4.40973 5.7157 4.21799 6.09202C4.1383 6.24842 4.07337 6.47262 4.03755 6.91104C4.00078 7.36113 4 7.94342 4 8.8V15.2C4 16.0566 4.00078 16.6389 4.03755 17.089C4.07337 17.5274 4.1383 17.7516 4.21799 17.908C4.40974 18.2843 4.7157 18.5903 5.09202 18.782C5.24842 18.8617 5.47262 18.9266 5.91104 18.9625C6.36113 18.9992 6.94342 19 7.8 19H16.2C17.0566 19 17.6389 18.9992 18.089 18.9625C18.5274 18.9266 18.7516 18.8617 18.908 18.782C19.2843 18.5903 19.5903 18.2843 19.782 17.908C19.8617 17.7516 19.9266 17.5274 19.9624 17.089C19.9864 16.7954 19.9951 16.4455 19.9982 16H12C11.4477 16 11 15.5523 11 15V9C11 8.44772 11.4477 8 12 8H19.9982C19.9951 7.55447 19.9864 7.20463 19.9624 6.91104C19.9266 6.47262 19.8617 6.24842 19.782 6.09202C19.5903 5.7157 19.2843 5.40973 18.908 5.21799C18.7516 5.1383 18.5274 5.07337 18.089 5.03755C17.6389 5.00078 17.0566 5 16.2 5H7.8C6.94342 5 6.36113 5.00078 5.91104 5.03755ZM20 10V14H13V10H20ZM16 11C15.4477 11 15 11.4477 15 12C15 12.5523 15.4477 13 16 13H17C17.5523 13 18 12.5523 18 12C18 11.4477 17.5523 11 17 11H16Z"
        fill="black" />
</svg>