<svg width="16" height="16" viewBox="0 0 16 16" fill="none" xmlns="http://www.w3.org/2000/svg">
    <g opacity="0.2">
        <path fill-rule="evenodd" clip-rule="evenodd"
            d="M7.85613 0H4.16146H4.16142C3.63428 -1.70221e-05 3.17954 -3.17059e-05 2.80497 0.0305712C2.40963 0.0628723 2.01641 0.134188 1.63803 0.326982C1.07354 0.614602 0.614602 1.07354 0.326982 1.63803C0.134188 2.01641 0.0628723 2.40963 0.0305712 2.80497C-3.17056e-05 3.17954 -1.70221e-05 3.63428 0 4.16142V4.16146V7.85613V7.85617C-1.64261e-05 8.37524 -3.05958e-05 8.82304 0.0296685 9.19206C0.061008 9.58145 0.130176 9.96898 0.317326 10.3429C0.607464 10.9225 1.07753 11.3925 1.65715 11.6827C2.03103 11.8698 2.41855 11.939 2.80795 11.9703C3.14244 11.9973 3.54167 11.9998 4.00003 12C4.00031 12.459 4.00314 12.8592 4.03057 13.195C4.06287 13.5904 4.13419 13.9836 4.32698 14.362C4.6146 14.9265 5.07354 15.3854 5.63803 15.673C6.01641 15.8658 6.40963 15.9371 6.80497 15.9694C7.17952 16 7.63425 16 8.16136 16H8.16148H11.8385H11.8386C12.3658 16 12.8205 16 13.195 15.9694C13.5904 15.9371 13.9836 15.8658 14.362 15.673C14.9265 15.3854 15.3854 14.9265 15.673 14.362C15.8658 13.9836 15.9371 13.5904 15.9694 13.195C16 12.8205 16 12.3658 16 11.8386V11.8385V8.16148V8.16136C16 7.63425 16 7.17952 15.9694 6.80497C15.9371 6.40963 15.8658 6.01641 15.673 5.63803C15.3854 5.07354 14.9265 4.6146 14.362 4.32698C13.9836 4.13419 13.5904 4.06287 13.195 4.03057C12.8592 4.00314 12.459 4.00031 12 4.00003C11.9998 3.54167 11.9973 3.14244 11.9703 2.80795C11.939 2.41855 11.8698 2.03103 11.6827 1.65715C11.3925 1.07753 10.9225 0.607464 10.3429 0.317326C9.96898 0.130176 9.58145 0.061008 9.19206 0.0296685C8.82304 -3.05956e-05 8.37524 -1.64261e-05 7.85617 0H7.85613ZM9.99995 4C9.99957 3.53378 9.99675 3.21654 9.97678 2.96839C9.95523 2.70066 9.91863 2.60113 9.89423 2.55238C9.79751 2.35918 9.64083 2.20249 9.44762 2.10578C9.39887 2.08138 9.29935 2.04477 9.03161 2.02322C8.75247 2.00076 8.3859 2 7.81818 2H4.2C3.62345 2 3.25117 2.00078 2.96784 2.02393C2.69617 2.04612 2.59546 2.0838 2.54601 2.109C2.35785 2.20487 2.20487 2.35785 2.109 2.54601C2.0838 2.59546 2.04612 2.69617 2.02393 2.96784C2.00078 3.25117 2 3.62345 2 4.2V7.81818C2 8.3859 2.00076 8.75247 2.02322 9.03161C2.04477 9.29935 2.08138 9.39887 2.10578 9.44762C2.20249 9.64083 2.35918 9.79751 2.55238 9.89423C2.60113 9.91863 2.70066 9.95523 2.96839 9.97678C3.21654 9.99675 3.53378 9.99957 4 9.99995V8.16146C3.99998 7.63431 3.99997 7.17955 4.03057 6.80497C4.06287 6.40963 4.13419 6.01641 4.32698 5.63803C4.6146 5.07354 5.07354 4.6146 5.63803 4.32698C6.01641 4.13419 6.40963 4.06287 6.80497 4.03057C7.17955 3.99997 7.63431 3.99998 8.16146 4H9.99995ZM6.54601 6.109C6.59546 6.0838 6.69617 6.04612 6.96784 6.02393C7.25117 6.00078 7.62345 6 8.2 6H11.8C12.3766 6 12.7488 6.00078 13.0322 6.02393C13.3038 6.04612 13.4045 6.0838 13.454 6.109C13.6422 6.20487 13.7951 6.35785 13.891 6.54601C13.9162 6.59546 13.9539 6.69617 13.9761 6.96784C13.9992 7.25117 14 7.62345 14 8.2V11.8C14 12.3766 13.9992 12.7488 13.9761 13.0322C13.9539 13.3038 13.9162 13.4045 13.891 13.454C13.7951 13.6422 13.6422 13.7951 13.454 13.891C13.4045 13.9162 13.3038 13.9539 13.0322 13.9761C12.7488 13.9992 12.3766 14 11.8 14H8.2C7.62345 14 7.25117 13.9992 6.96784 13.9761C6.69617 13.9539 6.59546 13.9162 6.54601 13.891C6.35785 13.7951 6.20487 13.6422 6.109 13.454C6.0838 13.4045 6.04612 13.3038 6.02393 13.0322C6.00078 12.7488 6 12.3766 6 11.8V8.2C6 7.62345 6.00078 7.25117 6.02393 6.96784C6.04612 6.69617 6.0838 6.59546 6.109 6.54601C6.20487 6.35785 6.35785 6.20487 6.54601 6.109Z"
            fill="black" />
    </g>
</svg>