<svg width="80" height="80" viewBox="0 0 80 80" fill="none" xmlns="http://www.w3.org/2000/svg">
    <path opacity="0.1"
        d="M48 36H24M39 50H24M55 22H24M68 38.75V21.8C68 15.9194 68 12.9792 66.8556 10.7331C65.8489 8.7574 64.2426 7.1511 62.2669 6.14443C60.0208 5 57.0806 5 51.2 5H28.8C22.9194 5 19.9792 5 17.7331 6.14443C15.7574 7.1511 14.1511 8.7574 13.1444 10.7331C12 12.9792 12 15.9194 12 21.8V58.2C12 64.0806 12 67.0208 13.1444 69.2669C14.1511 71.2426 15.7574 72.8489 17.7331 73.8556C19.9792 75 22.9194 75 28.8 75H42.25M75 75L69.75 69.75M73.25 61C73.25 67.7655 67.7655 73.25 61 73.25C54.2345 73.25 48.75 67.7655 48.75 61C48.75 54.2345 54.2345 48.75 61 48.75C67.7655 48.75 73.25 54.2345 73.25 61Z"
        stroke="black" stroke-width="5" stroke-linecap="round" stroke-linejoin="round" />
</svg>