<svg width="74" height="74" viewBox="0 0 74 74" fill="none" xmlns="http://www.w3.org/2000/svg">
    <path opacity="0.1" fill-rule="evenodd" clip-rule="evenodd"
        d="M36.5 5C18.5507 5 4 19.5507 4 37.5V54.4668C4 62.2008 11.0344 68.0274 18.6331 66.5877L24.2289 65.5274L24.2736 65.5838C30.5169 73.4701 42.4831 73.4701 48.7264 65.5838L48.7711 65.5274L54.3669 66.5877C61.9656 68.0274 69 62.2008 69 54.4669V37.5C69 19.5507 54.4493 5 36.5 5ZM9 37.5C9 22.3121 21.3122 10 36.5 10C51.6878 10 64 22.3122 64 37.5V54.4669C64 59.0662 59.8167 62.5313 55.2977 61.6751L49.4684 60.5706C47.7843 60.2515 46.0623 60.8937 44.9983 62.2376L44.8062 62.4803C40.5647 67.838 32.4353 67.838 28.1938 62.4803L28.0017 62.2376C26.9377 60.8937 25.2157 60.2515 23.5316 60.5706L17.7023 61.6751C13.1833 62.5313 9 59.0662 9 54.4668V37.5ZM25 34C23.3431 34 22 35.3431 22 37V41C22 42.6569 23.3431 44 25 44C26.6569 44 28 42.6569 28 41V37C28 35.3431 26.6569 34 25 34ZM45 37C45 35.3431 46.3431 34 48 34C49.6569 34 51 35.3431 51 37V41C51 42.6569 49.6569 44 48 44C46.3431 44 45 42.6569 45 41V37ZM31.4888 57.1166C32.4341 55.2229 34.4626 53.5 37 53.5C39.5374 53.5 41.5659 55.2229 42.5112 57.1166C43.1278 58.3519 44.6292 58.8535 45.8645 58.2368C47.0999 57.6201 47.6014 56.1188 46.9848 54.8834C45.4341 51.7771 41.9179 48.5 37 48.5C32.0821 48.5 28.5659 51.7771 27.0152 54.8834C26.3986 56.1188 26.9001 57.6201 28.1354 58.2368C29.3708 58.8535 30.8722 58.3519 31.4888 57.1166Z"
        fill="black" />
</svg>