<svg width="16" height="16" viewBox="0 0 16 16" fill="none" xmlns="http://www.w3.org/2000/svg">
    <path opacity="0.7"
        d="M13 6.33333L13 3M13 3H9.66667M13 3L8.55556 7.44444M6.88889 4.11111H5.66667C4.73325 4.11111 4.26654 4.11111 3.91002 4.29277C3.59641 4.45256 3.34144 4.70752 3.18166 5.02113C3 5.37765 3 5.84436 3 6.77778V10.3333C3 11.2668 3 11.7335 3.18166 12.09C3.34144 12.4036 3.59641 12.6586 3.91002 12.8183C4.26654 13 4.73325 13 5.66667 13H9.22222C10.1556 13 10.6224 13 10.9789 12.8183C11.2925 12.6586 11.5474 12.4036 11.7072 12.09C11.8889 11.7335 11.8889 11.2668 11.8889 10.3333V9.11111"
        stroke="black" stroke-width="1.5" stroke-linecap="round" stroke-linejoin="round" />
</svg>