<svg width="16" height="16" viewBox="0 0 16 16" fill="none" xmlns="http://www.w3.org/2000/svg">
    <g opacity="0.2">
        <path
            d="M5 11.8182V11.8182C5 12.9211 5 13.4726 5.21155 13.8952C5.40498 14.2816 5.71835 14.595 6.10477 14.7885C6.52739 15 7.07886 15 8.18182 15H11.8C12.9201 15 13.4802 15 13.908 14.782C14.2843 14.5903 14.5903 14.2843 14.782 13.908C15 13.4802 15 12.9201 15 11.8V8.18182C15 7.07886 15 6.52739 14.7885 6.10477C14.595 5.71835 14.2816 5.40498 13.8952 5.21155C13.4726 5 12.9211 5 11.8182 5V5"
            stroke="black" stroke-width="2" stroke-linecap="round" stroke-linejoin="round" stroke-dasharray="10 1" />
        <path
            d="M11 7.8C11 8.92011 11 9.48016 10.782 9.90798C10.5903 10.2843 10.2843 10.5903 9.90798 10.782C9.48016 11 8.92011 11 7.8 11H4.2C3.07989 11 2.51984 11 2.09202 10.782C1.71569 10.5903 1.40973 10.2843 1.21799 9.90798C1 9.48016 1 8.92011 1 7.8V4.2C1 3.07989 1 2.51984 1.21799 2.09202C1.40973 1.71569 1.71569 1.40973 2.09202 1.21799C2.51984 1 3.07989 1 4.2 1H7.8C8.92011 1 9.48016 1 9.90798 1.21799C10.2843 1.40973 10.5903 1.71569 10.782 2.09202C11 2.51984 11 3.07989 11 4.2V7.8Z"
            stroke="black" stroke-width="2" />
        <rect x="3" y="4" width="6" height="1.5" rx="0.75" fill="black" />
        <rect x="3" y="6.5" width="6" height="1.5" rx="0.75" fill="black" />
    </g>
</svg>