<svg width="15" height="15" viewBox="0 0 15 15" fill="none" xmlns="http://www.w3.org/2000/svg">
    <path opacity="0.2" fill-rule="evenodd" clip-rule="evenodd"
        d="M7 0C3.13401 0 0 3.13401 0 7C0 10.866 3.13401 14 7 14C8.67831 14 10.2187 13.4094 11.4246 12.4246L13.2929 14.2929C13.6834 14.6834 14.3166 14.6834 14.7071 14.2929C15.0976 13.9024 15.0976 13.2692 14.7071 12.8787L12.7793 10.9509C13.5494 9.82644 14 8.46583 14 7C14 3.13401 10.866 0 7 0ZM2 7C2 4.23858 4.23858 2 7 2C9.76142 2 12 4.23858 12 7C12 9.76142 9.76142 12 7 12C4.23858 12 2 9.76142 2 7Z"
        fill="black" />
</svg>