<svg width="24" height="24" viewBox="0 0 24 24" fill="none" xmlns="http://www.w3.org/2000/svg">
    <path d="M9 6H16V13" stroke="#5959D8" stroke-width="2" stroke-linecap="round" stroke-linejoin="round" />
    <path
        d="M14.0712 6.70711C14.4617 6.31658 15.0949 6.31658 15.4854 6.70711V6.70711C15.876 7.09763 15.876 7.7308 15.4854 8.12132L9.12147 14.4853C8.73094 14.8758 8.09778 14.8758 7.70725 14.4853V14.4853C7.31673 14.0948 7.31673 13.4616 7.70725 13.0711L14.0712 6.70711Z"
        fill="#5959D8" />
    <path
        d="M4 19C4 18.4477 4.44772 18 5 18H19C19.5523 18 20 18.4477 20 19V19C20 19.5523 19.5523 20 19 20H5C4.44772 20 4 19.5523 4 19V19Z"
        fill="#5959D8" />
</svg>