<svg width="24" height="24" viewBox="0 0 24 24" fill="none" xmlns="http://www.w3.org/2000/svg">
<path d="M16.8994 10.0503L11.9497 15L6.99992 10.0503" stroke="#5959D8" stroke-width="2" stroke-linecap="round" stroke-linejoin="round"/>
<path d="M12.8994 13C12.8994 13.5523 12.4517 14 11.8994 14V14C11.3471 14 10.8994 13.5523 10.8994 13V5C10.8994 4.44772 11.3471 4 11.8994 4V4C12.4517 4 12.8994 4.44772 12.8994 5V13Z" fill="#5959D8"/>
<path d="M4 19.0001C4 18.4478 4.44772 18.0001 5 18.0001H19C19.5523 18.0001 20 18.4478 20 19.0001V19.0001C20 19.5524 19.5523 20.0001 19 20.0001H5C4.44772 20.0001 4 19.5524 4 19.0001V19.0001Z" fill="#5959D8"/>
</svg>
