<svg width="44" height="44" viewBox="0 0 44 44" fill="none" xmlns="http://www.w3.org/2000/svg">
    <circle cx="22" cy="22" r="21" transform="rotate(-90 22 22)" fill="white" stroke="#EFF0F9" stroke-width="2" />
    <g opacity="0.8">
        <path
            d="M18.2912 27.8065L18.2912 19.5256L16.584 19.4584C16.0648 19.4584 15.8047 18.8074 16.1719 18.4267L18.9889 15.2928C19.6008 14.6583 20.4105 15.1301 20.4105 16.0051V27.8065C20.4105 28.3917 19.9361 28.8662 19.3509 28.8662C18.7656 28.8662 18.2912 28.3918 18.2912 27.8065Z"
            fill="black" />
        <path
            d="M25.7088 16.1893L25.7088 24.4703L27.416 24.5374C27.9353 24.5374 28.1953 25.1884 27.8281 25.5692L25.0111 28.703C24.3992 29.3376 23.5895 28.8882 23.5895 27.9907L23.5895 16.1893C23.5895 15.6041 24.0639 15.1297 24.6491 15.1297C25.2344 15.1297 25.7088 15.6041 25.7088 16.1893Z"
            fill="black" />
    </g>
</svg>